<mxfile host="app.diagrams.net" modified="2024-06-09T03:38:01.106Z" agent="Mozilla/5.0 (Windows NT 10.0; Win64; x64) AppleWebKit/537.36 (KHTML, like Gecko) Chrome/125.0.0.0 Safari/537.36" etag="LicaGR37VXJ2WRKrwcWc" version="24.5.2" type="device">
  <diagram name="PÃ¡gina-1" id="GoHA1T9QolWDwQfskmPp">
    <mxGraphModel dx="2074" dy="818" grid="1" gridSize="10" guides="1" tooltips="1" connect="1" arrows="1" fold="1" page="1" pageScale="1" pageWidth="827" pageHeight="1169" math="0" shadow="0">
      <root>
        <mxCell id="0" />
        <mxCell id="1" parent="0" />
        <mxCell id="Nc78XizYGOwW-j8Ear6D-1" value="&lt;b&gt;iPhone&lt;/b&gt;" style="whiteSpace=wrap;html=1;aspect=fixed;" vertex="1" parent="1">
          <mxGeometry x="374" y="170" width="80" height="80" as="geometry" />
        </mxCell>
        <mxCell id="Nc78XizYGOwW-j8Ear6D-2" value="&lt;b&gt;Reprodutor Musical&lt;/b&gt;&lt;div&gt;&lt;b&gt;&lt;br&gt;&lt;/b&gt;&lt;/div&gt;&lt;div&gt;+ tocar ();&lt;/div&gt;&lt;div&gt;+ pausar ();&lt;/div&gt;&lt;div&gt;+ selecionarMusica ();&lt;/div&gt;" style="rounded=1;whiteSpace=wrap;html=1;" vertex="1" parent="1">
          <mxGeometry x="140" y="370" width="170" height="100" as="geometry" />
        </mxCell>
        <mxCell id="Nc78XizYGOwW-j8Ear6D-3" value="&lt;b&gt;Navegador Internet&lt;/b&gt;&lt;div&gt;&lt;b&gt;&lt;br&gt;&lt;/b&gt;&lt;/div&gt;&lt;div&gt;+ exibirPagina ();&lt;/div&gt;&lt;div&gt;+ adicionarNovaAba();&lt;/div&gt;&lt;div&gt;+ atualizarPagina ();&lt;/div&gt;" style="rounded=1;whiteSpace=wrap;html=1;" vertex="1" parent="1">
          <mxGeometry x="329" y="370" width="170" height="100" as="geometry" />
        </mxCell>
        <mxCell id="Nc78XizYGOwW-j8Ear6D-5" value="&lt;b&gt;Telefone&lt;/b&gt;&lt;div&gt;&lt;b&gt;&lt;br&gt;&lt;/b&gt;&lt;/div&gt;&lt;div&gt;+ atender ();&lt;/div&gt;&lt;div&gt;+ ligar ();&lt;/div&gt;&lt;div&gt;+ iniciarCorreioVoz;&lt;/div&gt;" style="rounded=1;whiteSpace=wrap;html=1;" vertex="1" parent="1">
          <mxGeometry x="520" y="370" width="170" height="100" as="geometry" />
        </mxCell>
        <mxCell id="Nc78XizYGOwW-j8Ear6D-6" value="" style="endArrow=classic;html=1;rounded=0;entryX=0.5;entryY=0;entryDx=0;entryDy=0;" edge="1" parent="1" source="Nc78XizYGOwW-j8Ear6D-1" target="Nc78XizYGOwW-j8Ear6D-3">
          <mxGeometry width="50" height="50" relative="1" as="geometry">
            <mxPoint x="400" y="320" as="sourcePoint" />
            <mxPoint x="450" y="270" as="targetPoint" />
          </mxGeometry>
        </mxCell>
        <mxCell id="Nc78XizYGOwW-j8Ear6D-7" value="" style="endArrow=classic;html=1;rounded=0;entryX=0.576;entryY=0.03;entryDx=0;entryDy=0;entryPerimeter=0;" edge="1" parent="1" source="Nc78XizYGOwW-j8Ear6D-1" target="Nc78XizYGOwW-j8Ear6D-5">
          <mxGeometry width="50" height="50" relative="1" as="geometry">
            <mxPoint x="500" y="270" as="sourcePoint" />
            <mxPoint x="550" y="220" as="targetPoint" />
          </mxGeometry>
        </mxCell>
        <mxCell id="Nc78XizYGOwW-j8Ear6D-8" value="" style="endArrow=classic;html=1;rounded=0;exitX=0;exitY=0.5;exitDx=0;exitDy=0;entryX=0.5;entryY=0;entryDx=0;entryDy=0;" edge="1" parent="1" source="Nc78XizYGOwW-j8Ear6D-1" target="Nc78XizYGOwW-j8Ear6D-2">
          <mxGeometry width="50" height="50" relative="1" as="geometry">
            <mxPoint x="260" y="280" as="sourcePoint" />
            <mxPoint x="310" y="230" as="targetPoint" />
          </mxGeometry>
        </mxCell>
      </root>
    </mxGraphModel>
  </diagram>
</mxfile>
